<svg xmlns="http://www.w3.org/2000/svg" width="100" height="100" viewBox="0 0 100 100">
    <g transform="translate(-138 -313)">
        <circle class="a" cx="50" cy="50" r="50" transform="translate(138 313)"/>
        <g transform="translate(139.712 154.35)">
            <g transform="translate(9.999 189.65)">
                <path class="b" d="M21.708-320.2c-3.549,6.219-11.646,20.744-11.706,21-.045.268.358.567,2.8,2.073a17.1,17.1,0,0,0,3.177,1.7c.223-.03,1.76-2.64,6.472-11.006,3.385-6.025,6.144-11.065,6.129-11.169a47.454,47.454,0,0,0-6.009-3.743A3.787,3.787,0,0,0,21.708-320.2Z" transform="translate(-9.999 321.35)"/>
                <path class="b" d="M755.2-319.043c-2.222,1.372-2.834,1.82-2.819,2.058.015.4,12.139,21.952,12.437,22.115s5.92-3.221,6.055-3.623c.119-.388-12.2-22.235-12.572-22.279A21.606,21.606,0,0,0,755.2-319.043Z" transform="translate(-694.603 320.818)"/>
                <path class="b" d="M325.493-244.38a32.528,32.528,0,0,0-5.95.97,3,3,0,0,0-1.655.954c-.85,1-4.339,5.95-5.324,7.561-.88,1.432-.939,1.6-.954,2.461s0,.939.418,1.133a6.105,6.105,0,0,0,3.5-.462,13.244,13.244,0,0,0,5.234-4.4l.522-.775,1.849-.6a16.9,16.9,0,0,1,2.147-.6c.522,0,6.8,3.385,10.245,5.532,3.34,2.073,9.424,6.413,12.884,9.2l1.76,1.432.626-.343a16.523,16.523,0,0,0,3.356-2.744l1.252-1.268-4.743-8.4c-2.595-4.623-4.772-8.455-4.831-8.53a4.372,4.372,0,0,0-1.357.209c-1.685.433-3.072.328-6.413-.433a29.958,29.958,0,0,0-8.441-1.059C328.147-244.513,326.3-244.453,325.493-244.38Z" transform="translate(-288.134 250.509)"/>
                <path class="b" d="M127.786-218.777l-4.876,8.665.775.909c.433.507,1.1,1.342,1.506,1.849a9.321,9.321,0,0,0,.775.939,5.308,5.308,0,0,0,.716-.507,4.153,4.153,0,0,1,6.159,1.76l.358.716.671-.91a3.47,3.47,0,0,1,3.086-1.655,4.375,4.375,0,0,1,4.339,4.354l.015,1.014h.552a4.736,4.736,0,0,1,2.982,1.715,4.6,4.6,0,0,1,.984,2.908l-.044.567.671.1a4.68,4.68,0,0,1,3.519,2.505,3.978,3.978,0,0,1-.179,4.146c-.283.433-.462.82-.4.88a6.319,6.319,0,0,0,1.089.433c3.534,1.133,6.442,1.387,7.859.686.76-.388,2.192-1.745,2.1-2.013a40.919,40.919,0,0,0-3.773-1.953c-2.043-1-3.773-1.879-3.833-1.984a.785.785,0,0,1,.254-1.074c.358-.239.462-.194,4.429,1.73,4.3,2.088,4.787,2.251,6.308,2.028a2.391,2.391,0,0,0,1.939-1.774c.418-1.4.716-1.133-4.5-4.146-2.609-1.506-4.862-2.863-5-3.013a.827.827,0,0,1-.268-.477c0-.343.6-.85.895-.775.149.045,2.49,1.357,5.2,2.923,4.876,2.818,4.922,2.848,5.8,2.848a3.1,3.1,0,0,0,2.386-.805,2.529,2.529,0,0,0,.746-2.222l-.044-.731-5.667-3.415c-3.117-1.879-5.757-3.55-5.876-3.713a.579.579,0,0,1-.044-.671c.343-.746.731-.567,7.143,3.3l6.084,3.654,1.118-.044a2.6,2.6,0,0,0,1.61-.388,2.706,2.706,0,0,0,.656-3.594c-.492-.731-2.282-2.222-6.219-5.16A111.73,111.73,0,0,0,152.6-220.059l-1.387-.716-1.387.418-1.4.418-1.014,1.268c-2.49,3.1-5.92,4.936-8.947,4.772a2.353,2.353,0,0,1-2.207-1.074c-.254-.328-.313-.612-.3-1.476.015-1.581.581-2.7,3.3-6.561.686-.97,1.237-1.819,1.237-1.864a8,8,0,0,0-1.819-.388,11.589,11.589,0,0,1-4.862-1.521c-.6-.358-1.1-.656-1.118-.656S130.47-223.549,127.786-218.777Z" transform="translate(-114.123 234.748)"/><path class="b" d="M156.643,46.717a12.994,12.994,0,0,0-2.535,3.444,3.036,3.036,0,0,0,2.446,3.4c.97.179,1.476-.179,2.729-1.849,1.029-1.4,1.118-1.566,1.118-2.237a2.6,2.6,0,0,0-.791-2.073A2.559,2.559,0,0,0,156.643,46.717Z" transform="translate(-142.831 -17.861)"/><path class="b" d="M219.01,54.777c-.328.149-1.223,1.253-3.117,3.833-1.462,1.984-2.744,3.788-2.848,4-.731,1.4.612,3.55,2.311,3.713,1.283.119,1.462-.045,3.7-3.087,3.773-5.13,3.623-4.876,3.623-5.667C222.679,55.642,220.591,54.046,219.01,54.777Z" transform="translate(-197.056 -25.339)"/><path class="b" d="M290.747,124.034a49.831,49.831,0,0,0-4.8,6.323,2.871,2.871,0,0,0,2.326,3.713c1.253.119,1.447-.044,3.49-2.848,2.729-3.758,2.64-3.609,2.64-4.489a2.8,2.8,0,0,0-1.268-2.356A2.5,2.5,0,0,0,290.747,124.034Z" transform="translate(-264.304 -89.213)"/>
                <path class="b" d="M366.454,192.325a23.326,23.326,0,0,0-3.4,4.653,2.953,2.953,0,0,0,1.67,3.146,2.086,2.086,0,0,0,2.028.015,20.441,20.441,0,0,0,3.49-4.653,2.6,2.6,0,0,0-.731-2.416A2.441,2.441,0,0,0,366.454,192.325Z" transform="translate(-335.507 -152.091)"/>
            </g></g></g></svg>