<svg width="25" height="24" viewBox="0 0 25 24" fill="none" xmlns="http://www.w3.org/2000/svg">
    <path
        d="M0.0127155 17.0207C0.0127155 15.2142 -0.0203943 13.4076 0.020242 11.6011C0.0839557 8.76241 1.08833 6.26642 2.94455 4.12872C4.88155 1.89768 7.32926 0.529751 10.2551 0.129309C14.0327 -0.387052 17.3724 0.641655 20.1884 3.24052C22.2378 5.13284 23.4654 7.48682 23.8667 10.2432C24.3022 13.2385 23.6896 16.0276 22.0361 18.5697C20.8145 20.449 19.1765 21.8681 17.1567 22.8351C15.5864 23.5964 13.8644 23.9932 12.1193 23.9958C8.54233 24.0048 4.96483 23.9993 1.38783 23.9958C1.21256 24.0041 1.03689 23.9962 0.863071 23.9722C0.33781 23.8719 0.0102108 23.4262 0.0102108 22.8371C0.0102108 20.8968 0.0102108 18.9565 0.0102108 17.0161L0.0127155 17.0207ZM11.4446 7.62832H9.88935C8.78565 7.62832 7.68195 7.62481 6.57824 7.62832C5.81318 7.62832 5.29895 8.28068 5.47905 9.01181C5.60598 9.52867 6.05097 9.83126 6.70516 9.83176C9.17043 9.83176 11.6359 9.83176 14.1015 9.83176C14.8369 9.83176 15.5724 9.84331 16.3089 9.82775C16.9932 9.8127 17.4888 9.3149 17.4668 8.69868C17.4442 8.0664 16.9465 7.62832 16.2562 7.62883C14.6532 7.62816 13.0493 7.62732 11.4446 7.62632V7.62832ZM11.4365 14.1975C13.0078 14.1975 14.5791 14.201 16.1524 14.194C16.3606 14.1986 16.5681 14.1684 16.7664 14.1047C17.2345 13.9361 17.5425 13.3956 17.4592 12.9505C17.3504 12.3679 16.9219 11.9971 16.3455 11.9971C14.1381 11.9971 11.932 11.9971 9.7273 11.9971C8.67377 11.9971 7.62023 11.9931 6.5667 11.9971C5.98224 11.9971 5.54578 12.3774 5.45798 12.9505C5.41799 13.2049 5.47181 13.4652 5.60942 13.6829C5.74703 13.9006 5.95905 14.0608 6.20599 14.1338C6.39117 14.1829 6.58237 14.2056 6.7739 14.201C8.32761 14.198 9.88233 14.1955 11.4365 14.1955V14.1975ZM9.23766 18.5512C10.1567 18.5512 11.0763 18.5572 11.9969 18.5512C12.2888 18.5525 12.5693 18.4382 12.7771 18.2332C12.9848 18.0281 13.103 17.7492 13.1056 17.4572C13.1056 16.8496 12.604 16.3613 11.9733 16.3603C10.1768 16.3603 8.38079 16.3558 6.58426 16.3638C6.40124 16.3635 6.22027 16.4023 6.05348 16.4777C5.58942 16.6975 5.36567 17.2058 5.47755 17.7162C5.53087 17.9503 5.66131 18.1596 5.84793 18.3106C6.03455 18.4616 6.2665 18.5454 6.5065 18.5487C7.41605 18.5572 8.3266 18.5492 9.23766 18.5492V18.5512Z"
        fill="#1ACCDA" />
</svg>
